<svg xmlns="http://www.w3.org/2000/svg" viewBox="0 0 64 64" width="64" height="64">
  <defs>
    <radialGradient id="bg" cx="50%" cy="50%" r="50%">
      <stop offset="0%" stop-color="#064e3b"/>
      <stop offset="100%" stop-color="#022c22"/>
    </radialGradient>
    <radialGradient id="ball" cx="40%" cy="35%" r="60%">
      <stop offset="0%" stop-color="#ffffff"/>
      <stop offset="100%" stop-color="#d4d4d8"/>
    </radialGradient>
  </defs>
  <rect width="64" height="64" rx="14" fill="url(#bg)"/>
  <!-- Football/soccer ball -->
  <circle cx="32" cy="30" r="18" fill="url(#ball)" stroke="#71717a" stroke-width="0.5"/>
  <!-- Pentagon patches -->
  <polygon points="32,18 27,22 29,28 35,28 37,22" fill="#1f2937"/>
  <polygon points="22,26 20,32 24,36 29,33 27,27" fill="#1f2937"/>
  <polygon points="42,26 44,32 40,36 35,33 37,27" fill="#1f2937"/>
  <polygon points="26,38 29,42 35,42 38,38 32,35" fill="#1f2937"/>
  <!-- Highlight -->
  <ellipse cx="27" cy="24" rx="4" ry="3" fill="#fff" opacity="0.35"/>
  <!-- 2026 text -->
  <text x="32" y="58" font-family="-apple-system, system-ui, sans-serif" font-size="11" font-weight="900" fill="#22c55e" text-anchor="middle" letter-spacing="1">2026</text>
</svg>
